# xmcd
#
# Track frame offsets: 
#        150
#        15624
#        30208
#        46441
#        59229
#        76810
#        96703
#        119699
#        136156
#
# Disc length: 2078 seconds
#
# Revision: 0
# Processed by: cddbd v1.5.2PL0 Copyright (c) Steve Scherf et al.
# Submitted via: ExactAudioCopy v0.95b4
#
DISCID=78081c09
DTITLE=Hacker, Zac - Get Your Love On
DYEAR=2007
DGENRE=Blues
TTITLE0=Lonely Town
TTITLE1=Any Bridge
TTITLE2=Never Been Loved
TTITLE3=Anything But Love
TTITLE4=If It Wasn't For The Whiskey
TTITLE5=Get Your Love On
TTITLE6=Emily
TTITLE7=Memphis Woman
TTITLE8=Big Red Balloon
EXTD=
EXTT0=
EXTT1=
EXTT2=
EXTT3=
EXTT4=
EXTT5=
EXTT6=
EXTT7=
EXTT8=
PLAYORDER=
